PathFileType	4	(X/Y/Z)	Demo_SinglePerson_0-99.trc
DataRate	CameraRate	NumFrames	NumMarkers	Units	OrigDataRate	OrigDataStartFrame	OrigNumFrames
60	60	5	22	m	60	50	100
Frame#	Time	Hip			RHip			RKnee			RAnkle			RBigToe			RSmallToe			RHeel			LHip			LKnee			LAnkle			LBigToe			LSmallToe			LHeel			Neck			Head			Nose			RShoulder			RElbow			RWrist			LShoulder			LElbow			LWrist			
		X1	Y1	Z1	X2	Y2	Z2	X3	Y3	Z3	X4	Y4	Z4	X5	Y5	Z5	X6	Y6	Z6	X7	Y7	Z7	X8	Y8	Z8	X9	Y9	Z9	X10	Y10	Z10	X11	Y11	Z11	X12	Y12	Z12	X13	Y13	Z13	X14	Y14	Z14	X15	Y15	Z15	X16	Y16	Z16	X17	Y17	Z17	X18	Y18	Z18	X19	Y19	Z19	X20	Y20	Z20	X21	Y21	Z21	X22	Y22	Z22	
50	0.8333333333333334	-0.1404394182613883	0.9466478899671794	-1.0668573470409366	-0.21882730138763923	0.9988300625210699	-1.039974728965389	-0.5255172999937122	0.7531826621918994	-0.8664589858677375	-0.8026109763246562	0.450068918793869	-0.9275832918321368	-0.8720497310026422	0.3790868058272254	-0.784409769040883	-0.8600582961421126	0.3786443734587301	-0.8342079250257788	-0.8206097823066714	0.4004991957526074	-0.9603799374724997	-0.05305478020128413	0.8810370068737584	-1.0458931225278212	-0.06980430823943229	0.483316628713965	-0.9557643601496165	-0.026980840922922883	0.15697598554013964	-1.146346560711192	-0.026489116446840474	0.08365517519785562	-1.0087535660997526	-0.00037692993044753566	0.07362496127313965	-1.0599694297784246	-0.02404054753322914	0.11199821264121464	-1.2032355341178567	0.2455879026487343	1.3172315887669297	-0.9840874633015058	0.4038990246522169	1.4814817028932854	-0.8571004344993542	0.319816283792574	1.3317242102030176	-0.8534578622678183	0.07695891831433262	1.411025183426441	-1.0191724419948451	-0.1761547971932638	1.4978743695831949	-1.005094669936818	-0.09595133310798563	1.646630773722396	-0.8240918301946142	0.3308935854609147	1.150132645337992	-1.0640849361663323	0.36829896205155355	0.876535016865466	-1.0647070167947352	0.3912302733829042	0.6258572909653134	-0.9803688180005903
51	0.85	-0.14540258369495782	0.9448076379790934	-1.0652828988525376	-0.22396834103228758	0.9993968859148923	-1.0395449818784492	-0.5226861142445957	0.752971978267041	-0.8618716498564027	-0.7891039772262731	0.44463538156017385	-0.9187185207506411	-0.8599864918500043	0.3707147041652369	-0.7776335812108958	-0.852606625748947	0.3740900192137254	-0.828441366664346	-0.8089394614093794	0.3945293432145419	-0.9492854887538343	-0.05522025256058501	0.8812391348466764	-1.046940317572159	-0.0691173084568734	0.48151579871869127	-0.958534911513856	-0.025816561669619893	0.15476796604575707	-1.1479863846582363	-0.024480857858621398	0.08149306956109276	-1.0121917142346522	0.019402008148913727	0.07536668495930023	-1.045902870131814	-0.02050319779795571	0.10811481775890845	-1.205938914516732	0.24595210082190408	1.319898135282856	-0.9792852493255827	0.3999806929878876	1.4593929582486986	-0.8387019891959387	0.32207885586664103	1.3268639211970759	-0.8537153635028972	0.07720722799538572	1.412653910351587	-1.0074901406943966	-0.17548524005026678	1.5024461987062856	-0.9900767199676295	-0.08391904017545773	1.6372430638865942	-0.8140551795081937	0.33038912184440955	1.152236606013639	-1.0620033140610134	0.371230739288053	0.8777627777330279	-1.0659337053341666	0.3976592227263846	0.6268551251383908	-0.9800923288129592
52	0.8666666666666667	-0.1381637008730199	0.9420197413350976	-1.0770299655138291	-0.22789288006310987	0.9901605423752772	-1.0388621447447723	-0.5218605199218107	0.745396951462488	-0.8806154685737171	-0.7729777118902293	0.4403123270073972	-0.8944890680382996	-0.816038094141122	0.3915869220364349	-0.6865406657831586	-0.8540883217309644	0.40562749829739053	-0.7609983332860791	-0.7914439080662014	0.3943259662034646	-0.9269707930637111	-0.05683574955151502	0.8746822512415546	-1.053861712399925	-0.06978471325631765	0.4809488103720084	-0.9660010021385133	-0.02241738384126719	0.15899972226768028	-1.1449248136940862	-0.031196172691639053	0.08582393654204472	-1.0026189022343626	0.02031291292858666	0.08041814131445454	-1.0376432151254946	-0.014961014730823782	0.11143323174136936	-1.2063739429496565	0.24378280554857423	1.3232940389825034	-0.9767557661176399	0.4062580804685711	1.4876341857193593	-0.8054860318759737	0.32753804426750205	1.3319441800797838	-0.8519674570349535	0.07711448784461507	1.4153424896429194	-1.003935306723046	-0.16751330482597937	1.500642342352372	-0.9741882042629983	-0.0764421440252187	1.6367192404773747	-0.7875801869926973	0.3285644782894085	1.1606050384058333	-1.049616972722108	0.3736514854606474	0.8850688470271153	-1.0682198377179752	0.40041714711789095	0.6387475803671303	-0.9902946895703644
53	0.8833333333333333	-0.13705934235113248	0.9516853706388559	-1.064424785870756	-0.21960073757181423	1.0048197504735734	-1.0390149311526076	-0.5078234008753671	0.7538570602477863	-0.8473898420573569	-0.7558305888990394	0.4324860109207274	-0.8933340309136744	-0.8265599622351602	0.36277943497412246	-0.7648166632995922	-0.8315840356528356	0.3744842714003914	-0.7885911991230614	-0.7765269700682736	0.3805978330429246	-0.9273304257932931	-0.03937542555014557	0.8963864836953206	-1.0163945952409292	-0.06544089295505172	0.48919589785140255	-0.9666492776231155	-0.020042081841669085	0.15330738069945576	-1.1447919874570516	-0.029325559394719234	0.08053326403417807	-1.0121034389422656	0.01912345754250342	0.07346157975647664	-1.0403361232297943	-0.015426833253521333	0.10677689729889277	-1.2068353707392108	0.24377923045551417	1.326317420283238	-0.9647593581401349	0.398112126433654	1.4655577058305398	-0.828200373790167	0.322450411914382	1.3355368394301208	-0.851428534119598	0.07432658360132133	1.4150657745889983	-0.9880424284961065	-0.17916193400213629	1.5052372362527058	-0.9548895445842969	-0.07026822160361419	1.6356769781625835	-0.7807353667079637	0.32596617009100043	1.1559942267051908	-1.0517876203851946	0.36993821008805794	0.889453597648397	-1.057756096354184	0.40196299011963454	0.6313476864548175	-0.984482927568122
54	0.9	-0.14187822818851034	0.9510941555897562	-1.0659513429133536	-0.2250202355060005	1.0021333438320317	-1.0340477306711704	-0.5014023068302028	0.7507222159185504	-0.8312892037491801	-0.7395925878278611	0.418165847252406	-0.8779236782329997	-0.8039072966407028	0.353407701233213	-0.7445769305543876	-0.8153216292237909	0.36591579007908887	-0.7747504770719605	-0.7574787418639853	0.36180566382203383	-0.9152392026625183	-0.05501547918474157	0.8878228579107258	-1.04657137406805	-0.0637854902588715	0.49197858063711775	-0.9659537254153455	-0.018037088630787575	0.15688623347799277	-1.1444180193119546	-0.023975962893479696	0.083522660495597	-1.0084322292039496	0.022639661257200676	0.07634479031890404	-1.0397755823399668	-0.01500725873896287	0.10525613669845676	-1.1998852214020397	0.2422602711905948	1.321645715157388	-0.9596116473114448	0.4071605760649439	1.4766965311762363	-0.8253744885694999	0.3205832757999394	1.3229940612949	-0.8457608993943665	0.07519107528785908	1.4166632627987195	-0.9870380128219188	-0.17561705929631616	1.5052066605358378	-0.9491136756260752	-0.06416967100167914	1.632624124204238	-0.7731193841737073	0.3233420872371497	1.1587516582192	-1.0414399591691823	0.37067905670268264	0.8914385293928986	-1.052877813417567	0.4099677541585167	0.6418441268967277	-0.9788078152594086
